<svg width="205" height="24" viewBox="0 0 205 24" fill="none" xmlns="http://www.w3.org/2000/svg">
<path d="M12.712 9.72C14.6747 10.04 16.1787 10.776 17.224 11.928C18.2693 13.0587 18.792 14.4667 18.792 16.152C18.792 17.4533 18.4507 18.6587 17.768 19.768C17.0853 20.856 16.04 21.7307 14.632 22.392C13.2453 23.0533 11.5387 23.384 9.512 23.384C7.93333 23.384 6.376 23.1813 4.84 22.776C3.32533 22.3493 2.03467 21.752 0.968 20.984L2.984 17.016C3.83733 17.656 4.81867 18.1573 5.928 18.52C7.05867 18.8613 8.21067 19.032 9.384 19.032C10.6853 19.032 11.7093 18.7867 12.456 18.296C13.2027 17.784 13.576 17.0693 13.576 16.152C13.576 14.3173 12.1787 13.4 9.384 13.4H7.016V9.976L11.624 4.76H2.088V0.599998H17.768V3.96L12.712 9.72ZM30.7855 23.384C28.9295 23.384 27.2762 22.9253 25.8255 22.008C24.3748 21.0907 23.2335 19.768 22.4015 18.04C21.5908 16.2907 21.1855 14.2107 21.1855 11.8C21.1855 9.38933 21.5908 7.32 22.4015 5.592C23.2335 3.84267 24.3748 2.50933 25.8255 1.592C27.2762 0.674666 28.9295 0.216 30.7855 0.216C32.6415 0.216 34.2948 0.674666 35.7455 1.592C37.1962 2.50933 38.3268 3.84267 39.1375 5.592C39.9695 7.32 40.3855 9.38933 40.3855 11.8C40.3855 14.2107 39.9695 16.2907 39.1375 18.04C38.3268 19.768 37.1962 21.0907 35.7455 22.008C34.2948 22.9253 32.6415 23.384 30.7855 23.384ZM30.7855 19C32.1508 19 33.2175 18.4133 33.9855 17.24C34.7748 16.0667 35.1695 14.2533 35.1695 11.8C35.1695 9.34667 34.7748 7.53333 33.9855 6.36C33.2175 5.18667 32.1508 4.6 30.7855 4.6C29.4415 4.6 28.3748 5.18667 27.5855 6.36C26.8175 7.53333 26.4335 9.34667 26.4335 11.8C26.4335 14.2533 26.8175 16.0667 27.5855 17.24C28.3748 18.4133 29.4415 19 30.7855 19ZM52.5043 23.384C50.6483 23.384 48.9949 22.9253 47.5443 22.008C46.0936 21.0907 44.9523 19.768 44.1203 18.04C43.3096 16.2907 42.9043 14.2107 42.9043 11.8C42.9043 9.38933 43.3096 7.32 44.1203 5.592C44.9523 3.84267 46.0936 2.50933 47.5443 1.592C48.9949 0.674666 50.6483 0.216 52.5043 0.216C54.3603 0.216 56.0136 0.674666 57.4643 1.592C58.9149 2.50933 60.0456 3.84267 60.8563 5.592C61.6883 7.32 62.1043 9.38933 62.1043 11.8C62.1043 14.2107 61.6883 16.2907 60.8563 18.04C60.0456 19.768 58.9149 21.0907 57.4643 22.008C56.0136 22.9253 54.3603 23.384 52.5043 23.384ZM52.5043 19C53.8696 19 54.9363 18.4133 55.7043 17.24C56.4936 16.0667 56.8883 14.2533 56.8883 11.8C56.8883 9.34667 56.4936 7.53333 55.7043 6.36C54.9363 5.18667 53.8696 4.6 52.5043 4.6C51.1603 4.6 50.0936 5.18667 49.3043 6.36C48.5363 7.53333 48.1523 9.34667 48.1523 11.8C48.1523 14.2533 48.5363 16.0667 49.3043 17.24C50.0936 18.4133 51.1603 19 52.5043 19Z" fill="#A21CFF"/>
<path d="M82.575 23V12.696L77.423 21.336H75.311L70.287 12.664V23H65.775V5.784H70.991L76.495 15.736L82.351 5.784H87.023L87.087 23H82.575ZM98.5568 5.528C101.223 5.528 103.271 6.168 104.701 7.448C106.13 8.70667 106.845 10.616 106.845 13.176V23H102.173V20.856C101.234 22.456 99.4848 23.256 96.9248 23.256C95.6021 23.256 94.4501 23.032 93.4688 22.584C92.5088 22.136 91.7728 21.5173 91.2608 20.728C90.7488 19.9387 90.4928 19.0427 90.4928 18.04C90.4928 16.44 91.0901 15.1813 92.2848 14.264C93.5008 13.3467 95.3674 12.888 97.8848 12.888H101.853C101.853 11.8 101.522 10.968 100.861 10.392C100.199 9.79467 99.2074 9.496 97.8848 9.496C96.9674 9.496 96.0608 9.64533 95.1648 9.944C94.2901 10.2213 93.5434 10.6053 92.9248 11.096L91.1328 7.608C92.0714 6.94667 93.1914 6.43467 94.4928 6.072C95.8154 5.70933 97.1701 5.528 98.5568 5.528ZM98.1728 19.896C99.0261 19.896 99.7834 19.704 100.445 19.32C101.106 18.9147 101.575 18.328 101.853 17.56V15.8H98.4288C96.3808 15.8 95.3568 16.472 95.3568 17.816C95.3568 18.456 95.6021 18.968 96.0928 19.352C96.6048 19.7147 97.2981 19.896 98.1728 19.896ZM124.973 9.88H116.141V23H111.181V5.784H124.973V9.88ZM134.307 5.528C136.973 5.528 139.021 6.168 140.451 7.448C141.88 8.70667 142.595 10.616 142.595 13.176V23H137.923V20.856C136.984 22.456 135.235 23.256 132.675 23.256C131.352 23.256 130.2 23.032 129.219 22.584C128.259 22.136 127.523 21.5173 127.011 20.728C126.499 19.9387 126.243 19.0427 126.243 18.04C126.243 16.44 126.84 15.1813 128.035 14.264C129.251 13.3467 131.117 12.888 133.635 12.888H137.603C137.603 11.8 137.272 10.968 136.611 10.392C135.949 9.79467 134.957 9.496 133.635 9.496C132.717 9.496 131.811 9.64533 130.915 9.944C130.04 10.2213 129.293 10.6053 128.675 11.096L126.883 7.608C127.821 6.94667 128.941 6.43467 130.243 6.072C131.565 5.70933 132.92 5.528 134.307 5.528ZM133.923 19.896C134.776 19.896 135.533 19.704 136.195 19.32C136.856 18.9147 137.325 18.328 137.603 17.56V15.8H134.179C132.131 15.8 131.107 16.472 131.107 17.816C131.107 18.456 131.352 18.968 131.843 19.352C132.355 19.7147 133.048 19.896 133.923 19.896ZM157.943 14.04C158.967 14.36 159.756 14.8507 160.311 15.512C160.887 16.1733 161.175 16.9627 161.175 17.88C161.175 18.968 160.802 19.928 160.055 20.76C159.308 21.5707 158.284 22.2 156.983 22.648C155.682 23.096 154.21 23.32 152.567 23.32C151.223 23.32 149.9 23.1813 148.599 22.904C147.298 22.6267 146.092 22.2107 144.983 21.656L146.327 18.168C148.14 19.0427 150.146 19.48 152.343 19.48C153.516 19.48 154.434 19.3093 155.095 18.968C155.778 18.6053 156.119 18.104 156.119 17.464C156.119 16.9093 155.884 16.4933 155.415 16.216C154.946 15.9173 154.263 15.768 153.367 15.768H149.847V12.664H152.919C153.794 12.664 154.466 12.5253 154.935 12.248C155.404 11.9707 155.639 11.5653 155.639 11.032C155.639 10.4773 155.34 10.0507 154.743 9.752C154.167 9.45333 153.335 9.304 152.247 9.304C150.583 9.304 148.77 9.69867 146.807 10.488L145.591 7.032C147.98 5.98667 150.306 5.464 152.567 5.464C154.124 5.464 155.511 5.656 156.727 6.04C157.964 6.424 158.935 6.98933 159.639 7.736C160.343 8.46133 160.695 9.31467 160.695 10.296C160.695 11.1067 160.45 11.8427 159.959 12.504C159.468 13.144 158.796 13.656 157.943 14.04ZM164.806 5.784H169.766V16.024L178.15 5.784H182.726V23H177.766V12.76L169.414 23H164.806V5.784ZM187.525 5.784H192.485V12.504H199.973V5.784H204.965V23H199.973V16.568H192.485V23H187.525V5.784Z" fill="black"/>
</svg>
