<svg width="48" height="48" viewBox="0 0 48 48" fill="none" xmlns="http://www.w3.org/2000/svg">
<path d="M41.5489 41.457L38.9959 13.365C38.9239 12.591 38.2759 12 37.4989 12H32.9989V9C32.9989 6.588 32.0659 4.323 30.3709 2.628C28.6759 0.933 26.4109 0 23.9989 0C19.0369 0 14.9989 4.038 14.9989 9V12H10.4989C9.72191 12 9.07391 12.591 9.00491 13.365L6.45191 41.457C6.29891 43.131 6.86291 44.805 7.99691 46.047C9.13091 47.289 10.7449 48 12.4279 48H35.5729C37.2559 48 38.8699 47.289 40.0039 46.047C41.1379 44.805 41.6989 43.131 41.5489 41.457ZM17.9989 9C17.9989 5.691 20.6899 3 23.9989 3C25.6099 3 27.1189 3.621 28.2499 4.749C29.3809 5.877 29.9989 7.389 29.9989 9V12H17.9989V9ZM37.7869 44.025C37.2109 44.652 36.4249 45 35.5699 45H12.4279C11.5759 45 10.7869 44.652 10.2139 44.022C9.63791 43.392 9.36491 42.579 9.44291 41.727L11.8699 15H14.9989V19.5C14.9989 20.328 15.6709 21 16.4989 21C17.3269 21 17.9989 20.328 17.9989 19.5V15H29.9989V19.5C29.9989 20.328 30.6709 21 31.4989 21C32.3269 21 32.9989 20.328 32.9989 19.5V15H36.1279L38.5579 41.73C38.6359 42.579 38.3629 43.395 37.7869 44.025Z" fill="black"/>
</svg>
