<svg width="48" height="48" viewBox="0 0 48 48" fill="none" xmlns="http://www.w3.org/2000/svg">
<path d="M23.658 23.1218C26.8345 23.1218 29.5847 21.9825 31.8325 19.7347C34.0796 17.4873 35.2192 14.7374 35.2192 11.5605C35.2192 8.38475 34.08 5.63451 31.8322 3.38635C29.5844 1.13928 26.8341 0 23.658 0C20.4811 0 17.7312 1.13928 15.4838 3.38671C13.2363 5.63414 12.0967 8.38438 12.0967 11.5605C12.0967 14.7374 13.2363 17.4876 15.4838 19.7351C17.7319 21.9821 20.4822 23.1218 23.658 23.1218ZM17.473 5.3756C19.1975 3.65112 21.2205 2.81286 23.658 2.81286C26.0951 2.81286 28.1184 3.65112 29.8433 5.3756C31.5677 7.10045 32.4064 9.12376 32.4064 11.5605C32.4064 13.998 31.5677 16.021 29.8433 17.7458C28.1184 19.4707 26.0951 20.3089 23.658 20.3089C21.2212 20.3089 19.1982 19.4703 17.473 17.7458C15.7482 16.0213 14.9095 13.998 14.9095 11.5605C14.9095 9.12376 15.7482 7.10045 17.473 5.3756Z" fill="black"/>
<path d="M43.8871 36.9096C43.8223 35.9743 43.6912 34.954 43.4982 33.8766C43.3033 32.7912 43.0525 31.7651 42.7522 30.8272C42.4417 29.8578 42.0201 28.9006 41.4983 27.9832C40.9574 27.0311 40.3217 26.202 39.6083 25.5197C38.8623 24.806 37.949 24.2321 36.8928 23.8135C35.8403 23.3972 34.674 23.1862 33.4263 23.1862C32.9363 23.1862 32.4624 23.3873 31.5472 23.9831C30.984 24.3504 30.3252 24.7752 29.5898 25.2451C28.9611 25.6457 28.1093 26.0211 27.0571 26.3609C26.0306 26.693 24.9884 26.8615 23.9594 26.8615C22.931 26.8615 21.8888 26.693 20.8616 26.3609C19.8105 26.0214 18.9584 25.6461 18.3307 25.2454C17.6023 24.78 16.9431 24.3552 16.3715 23.9827C15.457 23.3869 14.9832 23.1859 14.4932 23.1859C13.2451 23.1859 12.0791 23.3972 11.027 23.8139C9.97156 24.2317 9.05786 24.8056 8.31116 25.5201C7.59778 26.2027 6.96204 27.0314 6.42151 27.9832C5.90039 28.9006 5.47852 29.8575 5.16797 30.8276C4.86804 31.7654 4.61719 32.7912 4.42236 33.8766C4.229 34.9526 4.09827 35.9732 4.03345 36.9107C3.96973 37.8273 3.9375 38.7813 3.9375 39.7451C3.9375 42.2508 4.73401 44.2792 6.30469 45.7752C7.85596 47.2514 9.9082 47.9999 12.4047 47.9999H35.517C38.0127 47.9999 40.0649 47.2514 41.6166 45.7752C43.1876 44.2803 43.9841 42.2511 43.9841 39.7448C43.9838 38.7776 43.9512 37.8236 43.8871 36.9096ZM39.6771 43.7372C38.6521 44.7128 37.2913 45.187 35.5166 45.187H12.4047C10.6296 45.187 9.2688 44.7128 8.24414 43.7376C7.23889 42.7807 6.75037 41.4744 6.75037 39.7451C6.75037 38.8457 6.78003 37.9577 6.83936 37.1051C6.89722 36.2687 7.0155 35.3499 7.19092 34.3736C7.36414 33.4093 7.58459 32.5044 7.8468 31.6852C8.09839 30.8997 8.44153 30.1219 8.86707 29.3726C9.27319 28.6585 9.74048 28.0458 10.2561 27.5522C10.7384 27.0904 11.3463 26.7125 12.0626 26.429C12.7251 26.1668 13.4696 26.0232 14.2778 26.0016C14.3763 26.054 14.5518 26.154 14.8359 26.3393C15.4142 26.7161 16.0807 27.146 16.8175 27.6166C17.6481 28.1462 18.7181 28.6244 19.9966 29.0372C21.3036 29.4598 22.6366 29.6744 23.9597 29.6744C25.2828 29.6744 26.6162 29.4598 27.9225 29.0375C29.202 28.6241 30.2717 28.1462 31.1034 27.6159C31.8574 27.134 32.5052 26.7165 33.0835 26.3393C33.3677 26.1544 33.5431 26.054 33.6416 26.0016C34.4502 26.0232 35.1947 26.1668 35.8575 26.429C36.5735 26.7125 37.1814 27.0908 37.6637 27.5522C38.1793 28.0455 38.6466 28.6581 39.0527 29.373C39.4786 30.1219 39.8221 30.9001 40.0734 31.6849C40.3359 32.5052 40.5568 33.4097 40.7296 34.3732C40.9047 35.3514 41.0233 36.2705 41.0812 37.1055V37.1062C41.1409 37.9555 41.1709 38.8432 41.1713 39.7451C41.1709 41.4748 40.6824 42.7807 39.6771 43.7372Z" fill="black"/>
</svg>
