<svg width="40" height="40" viewBox="0 0 40 40" fill="none" xmlns="http://www.w3.org/2000/svg">
<path d="M34.0892 5.80872C30.3279 2.06512 25.3243 0.00213623 19.9991 0C14.6857 0 9.67422 2.06116 5.88823 5.80383C2.09552 9.55292 0.00488751 14.5352 0 19.8148V19.8209V19.8245C0.000610939 23.02 0.840957 26.2436 2.43612 29.1861L0.054679 40L11.0036 37.5119C13.7767 38.9081 16.8708 39.6442 19.9914 39.6454H19.9994C25.3118 39.6454 30.3233 37.5839 34.1099 33.8409C37.906 30.0888 39.9976 25.1129 40 19.83C40.0015 14.5844 37.9026 9.6048 34.0892 5.80872V5.80872ZM19.9991 36.5234H19.9921C17.19 36.5222 14.4136 35.8194 11.9634 34.4904L11.4456 34.2096L4.16508 35.864L5.74649 28.6838L5.44163 28.1586C3.92589 25.5472 3.12495 22.6645 3.12495 19.8212C3.13076 10.618 10.6997 3.12195 19.9985 3.12195C24.4907 3.12378 28.7117 4.86359 31.8837 8.02032C35.1036 11.2259 36.8763 15.4196 36.8747 19.8291C36.8711 29.0344 29.3006 36.5234 19.9991 36.5234V36.5234Z" fill="#DFDFDF"/>
<path d="M14.5571 11.0831H13.6804C13.3752 11.0831 12.8797 11.1972 12.4606 11.6528C12.0412 12.1088 10.8594 13.2108 10.8594 15.452C10.8594 17.6932 12.4988 19.8587 12.7273 20.163C12.9561 20.4669 15.892 25.213 20.5418 27.0389C24.4063 28.5562 25.1929 28.2544 26.0314 28.1784C26.8703 28.1027 28.7382 27.0767 29.1194 26.0132C29.5006 24.9496 29.5006 24.0378 29.3864 23.8473C29.2719 23.6575 28.9667 23.5437 28.5094 23.316C28.0518 23.0881 25.8097 21.9675 25.3903 21.8152C24.9708 21.6635 24.666 21.5875 24.3608 22.0438C24.0557 22.4991 23.1573 23.5526 22.8903 23.8565C22.6236 24.1608 22.3566 24.1989 21.899 23.9709C21.4414 23.7424 19.9831 23.2529 18.2355 21.7014C16.8753 20.4938 15.9314 18.9539 15.6644 18.4979C15.3977 18.0423 15.636 17.7957 15.8654 17.5684C16.071 17.3645 16.3487 17.0856 16.5775 16.8198C16.8059 16.5536 16.871 16.3638 17.0237 16.0599C17.1762 15.7559 17.0998 15.4898 16.9856 15.2621C16.871 15.0342 15.9931 12.7817 15.5862 11.8808H15.5865C15.2438 11.1221 14.883 11.0965 14.5571 11.0831V11.0831Z" fill="#DFDFDF"/>
</svg>
